<svg width="30" height="30" viewBox="0 0 30 30" fill="none" xmlns="http://www.w3.org/2000/svg">
<rect width="30" height="30" rx="6" fill="#FF2525"/>
<path d="M17.0271 14.0625V18.75M8.91899 9.375H21.892L20.6109 22.7062C20.567 23.165 20.3782 23.589 20.0808 23.8969C19.7834 24.2048 19.3982 24.375 18.999 24.375H11.812C11.4127 24.375 11.0275 24.2048 10.7301 23.8969C10.4327 23.589 10.244 23.165 10.2001 22.7062L8.91899 9.375ZM11.6311 6.70031C11.7623 6.37872 11.9698 6.10687 12.2295 5.91648C12.4892 5.72609 12.7904 5.625 13.0979 5.625H17.713C18.0207 5.62482 18.322 5.72582 18.5819 5.91623C18.8417 6.10663 19.0494 6.37858 19.1806 6.70031L20.2703 9.375H10.5406L11.6311 6.70031V6.70031ZM7.29736 9.375H23.5136H7.29736ZM13.7839 14.0625V18.75V14.0625Z" stroke="white" stroke-width="2" stroke-linecap="round" stroke-linejoin="round"/>
</svg>
